FILE "Woher kommt die Nudel.mp3" MP3
  TRACK 01 AUDIO
    TITLE "Kapitel 1"
    INDEX 01 00:00:00
  TRACK 02 AUDIO
    TITLE "Kapitel 2"
    INDEX 01 07:51:00
  TRACK 03 AUDIO
    TITLE "Kapitel 3"
    INDEX 01 11:18:00
  TRACK 04 AUDIO
    TITLE "Kapitel 4"
    INDEX 01 15:15:00
  TRACK 05 AUDIO
    TITLE "Kapitel 5"
    INDEX 01 19:29:00
